<svg xmlns="http://www.w3.org/2000/svg" width="320" height="240" viewBox="0 0 320 240" fill="none"><g clip-path="url(#clip0_252_555)"><path opacity="0.2" d="M309.175 156.588C309.175 156.588 295.261 211.25 227.037 209.149C168.772 207.356 145.708 153.834 105.007 160.94C64.2958 168.045 27.4754 171.407 9.94947 127.334C-10.5921 75.6982 -2.64353 30.8132 65.3475 12.9414C133.339 -4.93047 161.131 24.996 215.309 12.9414C269.488 0.886749 349.141 56.958 309.175 156.588Z" fill="#F08C36"></path><path opacity="0.2" d="M240.319 225.452C229.466 223.547 218.893 222.212 208.795 221.297C234.883 212.912 250.529 203.108 226.293 198.374C181.449 189.615 124.19 197.412 124.19 197.412C112.918 198.233 111.96 206.133 113.793 208.972C114.938 210.736 105.137 217.711 101.805 224.135C69.6573 226.974 58.1346 233.09 60.4056 235.63C63.8587 239.496 69.6572 239.654 168.698 240C229.978 240.215 305.965 236.974 240.31 225.461L240.319 225.452Z" fill="#F7E8DE"></path><path d="M230.797 170.38C230.797 170.38 236.568 210.988 231.654 211.539C226.739 212.09 217.813 174.47 217.813 174.47L230.797 170.38Z" fill="#261E35"></path><path d="M152.987 173.554C152.987 173.554 147.198 214.162 142.293 213.593C137.388 213.023 139.277 174.609 139.277 174.609L152.996 173.554H152.987Z" fill="#61ADA8"></path><path d="M178.285 53.0743C178.285 53.0743 213.783 51.9071 229.876 63.8777C245.959 75.8483 243.986 170.166 236.847 180.708C229.708 191.25 126.889 195.405 121.025 180.708C115.161 166.011 133.925 136.159 141.809 126.7C149.692 117.241 157.976 49.1619 178.294 53.0743H178.285Z" fill="#F08C36"></path><path d="M134.837 59.4505C134.837 59.4505 110.778 79.7968 107.092 77.9013C103.406 76.0058 82.8087 25.1915 81.5522 25.8638C80.2957 26.5361 81.4591 31.0181 81.4591 31.0181C81.4591 31.0181 77.8199 23.1373 77.2801 24.8647C76.7402 26.5921 78.6017 31.9051 78.6017 31.9051C78.6017 31.9051 75.5489 24.6313 74.8229 26.0786C74.0969 27.5259 75.521 32.4654 75.521 32.4654C75.521 32.4654 72.0214 27.918 71.6304 29.6081C71.2395 31.2982 73.3244 34.4262 73.9945 37.2461C74.6647 40.066 81.5522 90.6095 94.5547 98.3503C107.557 106.082 141.306 81.5709 143.81 78.3868C146.314 75.2028 134.856 59.4505 134.856 59.4505H134.837Z" fill="#FFE4D2"></path><path d="M80.5003 37.3307C79.793 36.6211 79.4672 35.8368 79.5417 34.9964C79.6999 33.2503 81.5614 31.9617 81.6451 31.915L82.2129 32.7461C82.2129 32.7461 80.6586 33.8292 80.5469 35.0898C80.5003 35.622 80.7144 36.1169 81.2077 36.6118L80.5003 37.3307Z" fill="#261E35"></path><path d="M76.3958 45.4074C76.3958 45.4074 88.6631 40.0664 89.6497 40.0664C90.6363 40.0664 92.9166 44.6604 92.3768 46.6866C91.8369 48.7129 80.4818 54.222 77.9874 53.1668C75.493 52.1117 74.1714 46.3598 76.3865 45.4074H76.3958Z" fill="#F08C36"></path><path d="M173.882 14.108C173.882 14.108 178.517 13.5291 180.193 18.1698C181.868 22.8105 180.872 35.3974 173.473 33.2871C166.073 31.1769 171.918 13.6038 173.882 14.0987V14.108Z" fill="#61ADA8"></path><path d="M159.353 135.261C159.353 135.261 266.622 140.294 192.115 164.3C173.789 170.201 127.112 167.839 119.908 164.3C112.713 160.761 74.8226 144.486 159.344 135.261H159.353Z" fill="#DDF2F0"></path><path d="M75.5393 52.0934C75.5393 52.0934 88.8955 43.0267 92.8884 45.1463C96.8813 47.2566 106.403 72.0288 106.403 72.0288C108.134 71.8421 139.165 41.5981 153.834 47.6301C157.222 49.0214 152.363 73.7842 148.78 76.0159C145.196 78.2569 110.628 114.365 97.0395 106.96C92.181 104.308 72.7842 53.6994 75.5486 52.0934H75.5393Z" fill="#DDF2F0"></path><path d="M174.283 27.0406C174.283 27.0406 174.106 45.8835 174.86 46.6679C176.144 48.0031 184.53 47.751 188.02 51.2245C191.511 54.6981 171.555 62.0093 161.811 61.4117C155.323 61.0102 148.715 47.5362 153.313 47.5176C157.901 47.4989 160.908 46.3411 160.805 42.9609C160.703 39.5808 160.675 36.5087 160.675 36.5087C160.675 36.5087 173.603 27.5261 174.292 27.0312L174.283 27.0406Z" fill="#FFE4D2"></path><path d="M157.091 47.1532C157.091 47.1532 153.406 55.9584 160.126 56.584C168.028 57.3123 177.959 48.255 179.485 48.1803C193.009 47.4893 197.476 52.1487 201.851 57.5551C206.225 62.9615 197.123 145.551 192.525 146.27C187.927 146.989 124.562 128.893 122.347 128.408C120.131 127.922 135.042 53.0171 136.466 52.8397C137.89 52.6623 147.114 44.7068 157.091 47.1625V47.1532Z" fill="#DDF2F0"></path><path d="M120.048 213.528C120.048 213.528 124.218 225.069 116.446 225.517C108.674 225.965 97.3283 227.898 93.8939 225.377C90.4594 222.856 110.368 215.479 111.262 211.464C112.155 207.449 120.048 213.528 120.048 213.528Z" fill="#FFE4D2"></path><path d="M82.8554 187.971C82.8554 187.971 80.7985 200.764 73.6224 197.729C66.4464 194.694 54.0768 192.565 52.1036 188.774C50.1304 184.983 72.5893 186.029 75.1582 182.826C77.727 179.624 82.8554 187.971 82.8554 187.971Z" fill="#FFE4D2"></path><path d="M193.67 137.604C193.67 137.604 193.624 115.064 133.469 114.373C105.044 114.046 99.6274 204.61 99.6274 204.61C105.584 205.273 129.3 211.473 131.087 204.255C132.883 197.037 144.769 156.597 144.769 156.597C152.578 155.159 192.116 167.699 193.67 137.604Z" fill="#61ADA8"></path><path d="M161.643 112.488C161.643 112.488 164.324 99.8913 169.461 99.6672C174.59 99.4338 186.28 102.786 188.225 100.508C190.17 98.2293 176.656 49.3011 181.878 48.6195C192.376 47.2469 198.677 52.2051 204.001 60.6741C210.74 71.3935 214.091 115.121 207.641 122.6C201.982 129.164 161.69 118.211 161.652 112.488H161.643Z" fill="#DDF2F0"></path><path d="M180.193 101.581C177.242 101.581 170.829 100.395 169.368 100.115L169.536 99.2089C173.454 99.9559 180.062 100.983 181.096 100.581C182.808 99.9092 181.933 89.7594 181.291 82.3548C180.742 76.0334 180.23 70.0574 180.816 67.583L181.71 67.7978C181.151 70.1321 181.663 76.0334 182.203 82.2708C183.18 93.6158 183.618 100.572 181.431 101.431C181.179 101.534 180.742 101.571 180.183 101.571L180.193 101.581Z" fill="#261E35"></path><path d="M134.707 71.7492L134.009 71.1516C136.568 68.1543 138.588 62.2904 138.607 62.2344L139.472 62.5332C139.389 62.7759 137.378 68.6212 134.707 71.7492Z" fill="#261E35"></path><path d="M119.891 66.3894L117.722 114.867L157.955 116.679L160.124 68.201L119.891 66.3894Z" fill="#F08C36"></path><path d="M164.975 115.111C164.975 115.111 136.736 95.8763 117.731 101.908C94.4433 109.304 71.2397 173.666 71.2397 173.666C83.8514 183.742 89.5475 191.613 94.4526 186.197C115.097 163.395 139.287 123.375 141.818 126.69C144.35 130.005 165.804 126.606 164.985 115.102L164.975 115.111Z" fill="#61ADA8"></path><path d="M162.35 101.031C162.35 101.031 158.888 95.8211 158.879 96.0639C158.869 96.3067 157.799 100.826 157.799 100.826C157.799 100.826 147.598 94.9061 147.142 97.5485C146.686 100.191 147.84 105.457 151.833 107.82C155.826 110.173 160.182 113.758 161.848 112.386C163.514 111.013 166.725 105.345 162.36 101.041L162.35 101.031Z" fill="#FFE4D2"></path><path d="M172.626 10.9711C172.626 10.9711 158.544 6.00363 153.797 11.8208C149.05 17.6381 149.274 37.6482 159.865 38.8434C175.139 40.5615 180.305 18.1049 172.626 10.9805V10.9711Z" fill="#FFE4D2"></path><path d="M154.28 22.7332C154.448 22.095 154.173 21.4688 153.666 21.3347C153.159 21.2006 152.612 21.6093 152.444 22.2476C152.276 22.8859 152.551 23.512 153.058 23.6461C153.565 23.7802 154.112 23.3715 154.28 22.7332Z" fill="#261E35"></path><path d="M164.224 23.4192C164.361 22.7735 164.055 22.1616 163.543 22.0525C163.03 21.9434 162.503 22.3784 162.367 23.0242C162.23 23.6699 162.535 24.2818 163.048 24.3909C163.561 24.5 164.088 24.065 164.224 23.4192Z" fill="#261E35"></path><path d="M151.898 7.11465C151.898 7.11465 149.599 12.353 154.42 14.2484C160.163 16.5081 167.311 11.0084 169.833 12.5117C172.356 14.0057 168.679 20.2337 173.752 23.3524C177.214 25.4814 180.314 20.0283 178.703 13.4174C176.944 6.21826 170.625 6.50772 169.154 5.32186C167.683 4.13601 171.304 4.06131 170.094 2.22184C168.893 0.382363 157.752 -3.48333 151.889 7.11465H151.898Z" fill="#61ADA8"></path><path d="M175.781 25.2108C175.781 25.2108 176.349 22.5589 177.931 23.8755C179.513 25.1921 178.508 29.3472 176.451 30.0569C174.394 30.7665 175.381 26.2472 175.781 25.2108Z" fill="#FFE4D2"></path><path d="M154.42 33.5299C155.686 32.9043 153.815 29.7856 158.664 28.8986C167.264 27.3205 163.467 33.1564 167.869 34.0341C172.272 34.9119 175.52 19.3277 172.03 16.4331C170.513 15.1819 179.513 15.1165 175.194 29.7109C174.915 30.6633 178.126 43.5957 160.126 44.2493C156.756 44.3707 152.549 41.0466 151.349 38.5348C149.236 34.1088 150.641 26.6482 151.079 25.7332C151.079 25.7332 152.41 34.5197 154.429 33.5299H154.42Z" fill="#61ADA8"></path><path d="M156.85 29.3562C156.468 29.3562 156.114 29.2909 155.863 29.1321C155.742 29.0574 155.584 28.908 155.528 28.6279C155.277 27.4607 157.436 24.0899 158.106 23.0908L158.879 23.6137C157.492 25.696 156.403 27.8156 156.431 28.3758C156.915 28.5626 158.264 28.2544 159.316 27.8529L159.651 28.7213C159.316 28.852 157.948 29.3562 156.85 29.3562Z" fill="#261E35"></path><path d="M159.186 32.6251C158.218 32.6251 157.455 32.1209 157.417 32.0929L157.808 31.5139C157.808 31.5139 158.748 32.1396 159.735 31.8501C160.433 31.6447 161.01 31.0284 161.448 30.0293L162.09 30.3094C161.559 31.5139 160.833 32.2609 159.93 32.5224C159.679 32.5971 159.428 32.6251 159.195 32.6251H159.186Z" fill="#DDF2F0"></path><path d="M68.68 184.722C68.68 184.722 67.0698 188.811 68.68 189.568C70.2902 190.324 81.5894 191.071 82.1479 191.174C82.7063 191.277 78.6483 199.662 76.9822 199.895C75.3162 200.128 52.6432 197.29 50.7352 191.174C48.8272 185.058 66.1018 184.955 68.68 184.722Z" fill="#61ADA8"></path><path d="M104.663 216.853C104.663 216.853 106.496 222.1 107.93 222.156C109.363 222.212 121.156 218.907 121.156 218.907C121.156 218.907 121.398 227.684 119.592 228.571C117.786 229.458 94.4154 232.978 89.5569 230.084C84.6984 227.189 104.663 216.853 104.663 216.853Z" fill="#61ADA8"></path><path d="M153.536 27.032C151.042 27.032 149.013 24.9965 149.013 22.494C149.013 19.9916 151.042 17.9561 153.536 17.9561C156.031 17.9561 158.06 19.9916 158.06 22.494C158.06 24.9965 156.031 27.032 153.536 27.032ZM153.536 18.6657C151.433 18.6657 149.711 20.3838 149.711 22.5034C149.711 24.623 151.423 26.3411 153.536 26.3411C155.649 26.3411 157.361 24.623 157.361 22.5034C157.361 20.3838 155.649 18.6657 153.536 18.6657Z" fill="#DDF2F0"></path><path d="M164.519 27.032C162.025 27.032 159.996 24.9965 159.996 22.494C159.996 19.9916 162.025 17.9561 164.519 17.9561C167.013 17.9561 169.042 19.9916 169.042 22.494C169.042 24.9965 167.013 27.032 164.519 27.032ZM164.519 18.6657C162.416 18.6657 160.694 20.3838 160.694 22.5034C160.694 24.623 162.406 26.3411 164.519 26.3411C166.632 26.3411 168.344 24.623 168.344 22.5034C168.344 20.3838 166.632 18.6657 164.519 18.6657Z" fill="#DDF2F0"></path><path d="M160.452 23.6884C159.121 23.3522 157.687 23.4363 157.669 23.4363L157.622 22.736C157.687 22.736 159.186 22.6426 160.619 23.0161L160.442 23.6977L160.452 23.6884Z" fill="#DDF2F0"></path><path d="M168.73 22.876L168.676 23.5742L176.351 24.164L176.404 23.4657L168.73 22.876Z" fill="#DDF2F0"></path><path d="M181.328 48.1162C181.328 48.1162 177.251 45.2216 173.473 47.2385C166.808 50.8054 160.535 56.4826 160.535 56.4826C160.535 56.4826 158.301 46.09 156.756 45.8752C155.211 45.6605 149.106 44.6987 149.236 47.1078C149.366 49.5168 149.403 61.5621 152.894 61.4501C156.384 61.338 160.535 58.266 160.535 58.266C160.535 58.266 161.81 63.0094 165.496 63.8031C171.499 65.0917 182.594 50.6467 181.328 48.1162Z" fill="#F08C36"></path><path d="M169.21 101.488C169.21 101.488 167.116 115.578 164.966 115.111C162.816 114.645 160.117 113.589 160.117 113.589C160.117 113.589 163.216 99.8447 164.138 99.8447C165.859 99.8447 169.21 101.479 169.21 101.479V101.488Z" fill="#F08C36"></path><path d="M156.831 9.66452C156.561 7.54493 156.998 5.8175 158.115 4.5196C160.088 2.24126 163.448 2.15723 163.588 2.15723V2.85753C163.588 2.85753 160.396 2.94157 158.637 4.98647C157.659 6.12564 157.278 7.66631 157.52 9.58048L156.831 9.66452Z" fill="#DDF2F0"></path><path d="M158.32 10.28C158.255 7.07728 162.415 4.87365 162.592 4.78027L162.918 5.40588C162.918 5.40588 158.972 7.5068 159.027 10.2707H158.329L158.32 10.28Z" fill="#DDF2F0"></path><path d="M103.117 176.42L102.429 176.317C102.447 176.215 104.011 165.691 107.166 154.897C111.438 140.312 116.436 132.189 122.03 130.76C133.432 127.847 137.983 134.038 143.261 141.209C146.974 146.26 151.181 151.984 158.534 155L158.274 155.644C150.744 152.554 146.472 146.746 142.702 141.62C137.574 134.654 133.153 128.631 122.207 131.432C109.409 134.71 103.183 175.991 103.117 176.411V176.42Z" fill="#FFFBDE"></path><path d="M156.449 178.475C156.449 178.475 150.874 131.863 165.952 126.027C172.747 123.394 218.009 113.711 223.175 121.125C228.34 128.538 229.83 175.748 223.175 178.484C216.52 181.22 156.449 178.484 156.449 178.484V178.475Z" fill="#F08C36"></path><path d="M70.3556 167.046C70.3556 167.046 98.1663 181.257 97.3193 185.721C96.6678 189.166 94.918 193.602 89.6034 192.322C83.0696 190.744 70.43 180.389 67.7309 176.169C65.0317 171.948 70.3556 167.046 70.3556 167.046Z" fill="#DDF2F0"></path><path d="M98.3616 202.631C98.3616 202.631 130.044 202.463 131.087 204.256C132.855 207.281 131.478 214.256 127.987 213.948C122.151 213.416 104.97 213.771 99.6181 213.22C94.6479 212.706 98.3523 202.64 98.3523 202.64L98.3616 202.631Z" fill="#DDF2F0"></path><path d="M154.067 108.146L153.21 107.773C153.546 106.998 155.826 102.917 155.928 102.749L156.738 103.207C155.928 104.663 154.318 107.558 154.067 108.146Z" fill="#261E35"></path><path d="M155.137 104.944C153.462 103.534 147.756 98.7346 147.756 98.7346L148.352 98.0156C148.352 98.0156 154.058 102.815 155.733 104.225L155.137 104.944Z" fill="#261E35"></path><path d="M154.318 106.708C154.16 106.633 150.511 104.934 147.3 101.46L147.98 100.825C151.061 104.149 154.672 105.839 154.709 105.858L154.318 106.708Z" fill="#261E35"></path><path d="M233.403 129.66C233.403 129.66 232.231 98.8466 252.307 87.3242C264.788 80.153 270.633 71.712 274.114 73.2433C277.595 74.7653 266.445 99.7056 260.646 107.484C254.857 115.252 233.403 129.669 233.403 129.669V129.66Z" fill="#B3DCD8"></path><path d="M213.281 234.407C213.281 234.407 204.644 190.288 207.855 188.467C211.066 186.646 250.985 184.116 250.948 188.065C250.911 192.006 250.52 234.762 247.328 234.725C244.135 234.697 216.455 236.573 213.281 234.407Z" fill="#F9BC8E"></path><path d="M237.322 152.668C237.322 152.668 237.574 127.494 255.276 125.365C272.979 123.236 289.509 134.917 292.553 143.274C295.596 151.631 273.361 137.382 262.909 143.003C252.456 148.625 237.313 152.668 237.313 152.668H237.322Z" fill="#B3DCD8"></path><path d="M221.732 154.601C221.732 154.601 213.095 132.088 185.675 137.093C168.14 140.296 159.614 161.333 160.731 170.157C161.848 178.981 175.092 156.095 186.95 156.282C198.808 156.468 221.732 154.61 221.732 154.61V154.601Z" fill="#B3DCD8"></path><path d="M227.549 143.694C227.549 143.694 226.544 121.919 209.427 116.915C192.311 111.919 174.096 120.724 169.731 128.465C165.366 136.206 189.621 125.794 199.022 133.059C208.422 140.324 227.549 143.694 227.549 143.694Z" fill="#B3DCD8"></path><path d="M231.002 185.974C230.965 185.582 227.801 146.691 255.565 135.402L255.956 136.383C228.899 147.382 232.008 185.498 232.045 185.881L231.002 185.974Z" fill="#B3DCD8"></path><path d="M245.727 163.321C245.727 163.321 259.493 151.939 271.351 159.493C283.208 167.047 279.597 181.52 284.316 186.796C289.035 192.071 279.643 195.255 270.671 189.345C261.689 183.434 261.894 173.098 256.421 171.09C250.958 169.083 245.727 163.321 245.727 163.321Z" fill="#B3DCD8"></path><path d="M209.204 163.069C209.204 163.069 194.619 153.199 184.586 163.069C174.553 172.929 179.458 191.352 175.93 197.496C172.403 203.64 182.25 204.798 189.807 197.141C197.365 189.485 192.758 175.329 197.691 172.22C202.624 169.11 209.195 163.069 209.195 163.069H209.204Z" fill="#B3DCD8"></path><path d="M232.911 186.395L231.877 186.236C233.758 173.817 238.207 166.216 245.122 163.649C250.362 161.697 257.11 162.734 264.621 166.637C270.252 169.569 274.403 173.117 274.44 173.154L273.761 173.957C273.603 173.817 257.52 160.156 245.485 164.638C238.96 167.066 234.735 174.387 232.92 186.404L232.911 186.395Z" fill="#B3DCD8"></path><path d="M230.881 171.306C227.931 145.628 232.985 128.438 237.75 118.54C242.934 107.774 248.742 103.161 248.984 102.975L249.627 103.806C249.394 103.992 226.339 122.63 231.924 171.185L230.881 171.306Z" fill="#B3DCD8"></path><path d="M230.016 156.533C226.544 138.662 220.14 130.902 215.375 127.541C210.265 123.927 205.9 124.487 205.854 124.497L205.705 123.451C206.458 123.348 224.208 121.182 231.04 156.328L230.006 156.533H230.016Z" fill="#B3DCD8"></path><path d="M230.872 174.787C228.08 163.041 222.589 154.88 214.566 150.538C201.591 143.516 186.234 148.969 186.075 149.025L185.722 148.035C185.88 147.979 201.665 142.367 215.059 149.604C223.37 154.095 229.029 162.48 231.896 174.535L230.872 174.778V174.787Z" fill="#B3DCD8"></path><path d="M230.704 185.34C230.686 184.453 229.913 163.64 207.398 163.49C200.25 163.443 194.945 165.386 191.622 169.261C186.615 175.087 187.843 183.388 187.862 183.472L186.829 183.631C186.773 183.267 185.517 174.76 190.831 168.57C194.368 164.452 199.925 162.351 207.417 162.435C230.956 162.584 231.756 185.088 231.756 185.312L230.704 185.34Z" fill="#B3DCD8"></path><path d="M221.22 169.53C221.22 169.53 208.86 163.386 205.723 179.213C202.587 195.04 207.706 218.103 204.737 222.464C201.768 226.825 217.488 222.763 219.34 211.875C221.192 200.988 218.456 172.994 221.22 169.53Z" fill="#B3DCD8"></path><path d="M212.574 188.635C212.546 188.047 211.904 174.078 218.531 169.783C221.63 167.775 224.292 167.365 226.451 168.569C232.203 171.772 232.064 185.358 232.054 185.937L231.003 185.918C231.003 185.787 231.142 172.379 225.939 169.484C224.143 168.485 221.844 168.887 219.098 170.67C212.983 174.638 213.616 188.449 213.626 188.589L212.574 188.645V188.635Z" fill="#B3DCD8"></path><path d="M228.694 165.899C228.694 165.899 236.866 154.871 244.731 169.932C252.195 184.228 240.821 207.478 243.995 211.689C247.16 215.901 231.272 212.595 228.908 201.81C226.544 191.026 228.657 165.348 228.694 165.899Z" fill="#B3DCD8"></path><path d="M237.08 181.903C236.848 177.374 235.526 165.376 232.268 164.339C231.384 164.059 230.323 164.694 229.113 166.235L228.294 165.581C229.802 163.667 231.254 162.92 232.594 163.34C237.127 164.787 238.048 180.11 238.141 181.856L237.089 181.912L237.08 181.903Z" fill="#B3DCD8"></path><path d="M222.747 139.082C212.453 123.087 194.229 122.676 194.052 122.676V121.976C194.247 121.976 212.834 122.386 223.333 138.699L222.747 139.082Z" fill="#F9BC8E"></path><path d="M236.41 122.423L235.74 122.227C240.03 107.484 255.555 91.9834 255.714 91.834L256.207 92.3289C256.049 92.4876 240.654 107.857 236.41 122.423Z" fill="#F9BC8E"></path><path d="M241.846 146.122L241.296 145.693C252.782 130.715 268.214 135.02 268.362 135.057L268.167 135.73C268.167 135.73 264.351 134.637 259.241 135.394C254.532 136.084 247.691 138.503 241.846 146.122Z" fill="#F9BC8E"></path><path d="M214.342 150.801C202.736 140.875 178.592 147.514 178.35 147.58L178.164 146.907C178.406 146.842 202.903 140.1 214.798 150.269L214.342 150.801Z" fill="#F9BC8E"></path><path d="M187.509 183.49C187.49 183.061 187.053 172.827 192.6 167.131C195.048 164.619 198.324 163.396 202.261 163.508L202.242 164.208C198.464 164.096 195.401 165.254 193.093 167.626C187.751 173.107 188.197 183.359 188.197 183.462L187.499 183.499L187.509 183.49Z" fill="#F9BC8E"></path><path d="M212.229 195.787C207.92 186.599 215.468 172.602 215.794 172.014L216.408 172.35C216.334 172.49 208.702 186.627 212.862 195.488L212.229 195.787Z" fill="#F9BC8E"></path><path d="M236.299 187.196L235.619 187.056C235.656 186.879 239.109 169.735 234.707 165.534C233.795 164.665 232.631 164.432 231.133 164.824L230.956 164.142C232.678 163.694 234.102 163.993 235.182 165.029C239.863 169.493 236.438 186.478 236.289 187.196H236.299Z" fill="#F9BC8E"></path><path d="M270.839 169.699C261.689 157.635 249.878 162.285 249.757 162.332L249.497 161.678C249.618 161.631 261.922 156.785 271.397 169.269L270.839 169.699Z" fill="#F9BC8E"></path></g><defs><clipPath id="clip0_252_555"><rect width="320" height="240" fill="white"></rect></clipPath></defs></svg>